<svg width="20" height="20" viewBox="0 0 50 50" fill="none" xmlns="http://www.w3.org/2000/svg">
<g clip-path="url(#clip0_402_12)">
<path d="M36.4356 2.43848C39.1797 -0.307323 43.6328 -0.307323 46.377 2.43848L47.5586 3.62207C50.3027 6.36817 50.3027 10.8203 47.5586 13.5645L28.3008 32.832C27.4512 33.6719 26.4063 34.2871 25.2539 34.6191L15.4883 37.4121C14.668 37.6465 13.7891 37.4121 13.1836 36.7285C12.5879 36.2109 12.3535 35.332 12.5879 34.5117L15.3809 24.7461C15.7129 23.5938 16.3281 22.5488 17.168 21.6992L36.4356 2.43848ZM42.9785 5.75293C42.1484 4.83789 40.6641 4.83789 39.7461 5.75293L36.9043 8.59375L41.4063 13.0957L44.2481 10.166C45.166 9.33594 45.166 7.85156 44.2481 6.93653L42.9785 5.75293ZM19.8926 26.0352L18.252 31.748L23.9648 30.1074C24.3555 30 24.6973 29.7949 24.9805 29.5117L38.0957 16.4063L33.5938 11.9043L20.4883 25.0195C20.2051 25.3027 20 25.6445 19.8926 26.0352ZM19.5313 6.25C20.8301 6.25 21.875 7.29981 21.875 8.59375C21.875 9.89258 20.8301 10.9375 19.5313 10.9375H8.59375C6.43652 10.9375 4.6875 12.6855 4.6875 14.8438V41.4063C4.6875 43.5645 6.43652 45.3125 8.59375 45.3125H35.1563C37.3145 45.3125 39.0625 43.5645 39.0625 41.4063V30.4688C39.0625 29.1699 40.1074 28.125 41.4063 28.125C42.7051 28.125 43.75 29.1699 43.75 30.4688V41.4063C43.75 46.1523 39.9023 50 35.1563 50H8.59375C3.84766 50 0 46.1523 0 41.4063V14.8438C0 10.0977 3.84766 6.25 8.59375 6.25H19.5313Z" fill="black"/>
</g>
<defs>
<clipPath id="clip0_402_12">
<rect width="50" height="50" fill="white"/>
</clipPath>
</defs>
</svg>
